<?xml version="1.0" encoding="UTF-8"?>
<svg id="Livello_2" xmlns="http://www.w3.org/2000/svg" viewBox="0 0 507.44 489.97">
  <defs>
    <style>
      .cls-1 {
        fill: #009689;
      }
    </style>
  </defs>
  <g id="Livello_1-2" data-name="Livello_1">
    <path class="cls-1" d="M443.14,135.17c-66.73-8.47-100.92,46.75-133.73,45.64-34.37-1.17,4.57-54.11,4.57-54.11-.01.01-.03.02-.04.03,10.91-13.38,17.47-30.44,17.47-49.05C331.4,34.78,296.62,0,253.72,0s-77.68,34.78-77.68,77.68c0,18.61,6.56,35.67,17.47,49.05-.01-.01-.03-.02-.04-.03,0,0,38.94,52.94,4.57,54.11-32.81,1.11-67-54.11-133.73-45.64,0,0-111.83,21.45-40.53,202.87.74,1.89,3.56,1.42,3.58-.61.21-33.23-1.03-151.76,18.62-140.11,8.66,5.13,18.35,120.7,54.02,172.65.83,1.2,2.46,1.06,2.35-.39-2.92-39.84-13.89-152.61,15.29-155.27,17.09-1.55,16.9,99.04,53.18,167.75.82,1.55,2.73,1.66,2.79-.09,1.39-47.6-3.51-139.03,27.35-138.82,24.12.16,45.06,186.47,51.06,245.11,0,0,0,0,0,0,0,0,0,0,0,.01,0,.09.02.18.03.27,0,.04.04.05.04.08.17.77.83,1.35,1.65,1.35s1.47-.59,1.65-1.35c0-.03.04-.05.04-.08,0-.09.02-.18.03-.27,0,0,0,0,0-.01h0c5.99-58.64,26.94-244.95,51.06-245.11,30.86-.21,25.96,91.22,27.35,138.82.05,1.75,1.97,1.63,2.79.09,36.29-68.7,36.09-169.3,53.18-167.75,29.19,2.65,18.21,115.42,15.29,155.27-.11,1.45,1.52,1.59,2.35.39,35.67-51.95,45.35-167.52,54.02-172.65,19.65-11.65,18.42,106.88,18.62,140.11.01,2.04,2.83,2.51,3.58.61,71.3-181.42-40.53-202.87-40.53-202.87ZM253.72,155.36c2.05,0,4.06-.15,6.06-.31-3.91.51-6.06.31-6.06.31,0,0-2.15.2-6.06-.31,2.01.16,4.02.31,6.06.31Z"/>
  </g>
</svg>